<svg width="1280" height="116" viewBox="0 0 1280 116" fill="none" xmlns="http://www.w3.org/2000/svg">
<g clip-path="url(#clip0_1392_93636)">
<rect width="1280" height="116" fill="#1E62A1" fill-opacity="0.04"/>
<path opacity="0.25" d="M1342.6 33.6708C1265.02 99.2314 1145.6 61.8052 1119.33 -36.3048C1105.72 -87.0858 1122.03 -141.191 1161.43 -175.996L1241.68 -246.888C1284.62 -284.817 1346.36 -292.694 1397.44 -266.758C1486.59 -221.498 1500.74 -99.9822 1424.38 -35.4465L1342.6 33.6708Z" stroke="#5A8FD3" stroke-width="3"/>
<path opacity="0.25" d="M685.083 340.605C539.697 463.473 315.896 393.332 266.645 209.462C241.152 114.292 271.716 12.8929 345.557 -52.3358L495.205 -184.532C575.671 -255.614 691.375 -270.375 787.109 -221.771C954.179 -136.95 980.699 90.7749 837.592 211.718L685.083 340.605Z" stroke="#5A8FD3" stroke-width="3"/>
<path opacity="0.25" d="M131.437 22.7019C36.1254 103.252 -110.593 57.2687 -142.881 -63.2722C-159.593 -125.663 -139.556 -192.138 -91.1484 -234.9L7.31911 -321.885C60.0722 -368.485 135.927 -378.162 198.69 -346.298C308.221 -290.69 325.607 -141.394 231.786 -62.1045L131.437 22.7019Z" stroke="#5A8FD3" stroke-width="3.22802"/>
<path opacity="0.45" d="M1213.89 42.1129C1246.16 162.603 1392.82 208.567 1488.09 128.051L1587.46 44.0761C1681.23 -35.1739 1663.85 -184.395 1554.38 -239.975C1491.64 -271.824 1415.83 -262.152 1363.1 -215.574L1265.6 -129.443C1217.21 -86.699 1197.18 -20.2519 1213.89 42.1129Z" fill="#1E62A1" fill-opacity="0.12"/>
<path opacity="0.45" d="M119.306 705.877C176.634 919.9 437.136 1001.54 606.365 858.526L782.864 709.364C949.432 568.595 918.564 303.538 724.105 204.812C612.677 148.241 478.005 165.421 384.348 248.155L211.159 401.147C125.21 477.073 89.6334 595.1 119.306 705.877Z" fill="#1E62A1" fill-opacity="0.08"/>
<path opacity="0.45" d="M407.586 -21.8578C464.914 192.165 725.416 273.809 894.645 130.791L1071.14 -18.3708C1237.71 -159.14 1206.84 -424.197 1012.39 -522.923C900.957 -579.494 766.285 -562.314 672.628 -479.58L499.439 -326.588C413.49 -250.662 377.913 -132.634 407.586 -21.8578Z" fill="#1E62A1" fill-opacity="0.08"/>
</g>
<defs>
<clipPath id="clip0_1392_93636">
<rect width="1280" height="116" fill="white"/>
</clipPath>
</defs>
</svg>
